STARTFONT 2.1
FONT -FontForge-Crimson Pro-Book-R-Normal--30-290-75-75-P-166-ISO10646-1
SIZE 29 75 75
FONTBOUNDINGBOX 29 26 -2 -6
COMMENT "Generated by fontforge, http://fontforge.sourceforge.net"
COMMENT "Copyright 2018 The Crimson Pro Project Authors (https://github.com/Fonthausen/CrimsonPro)"
STARTPROPERTIES 37
FOUNDRY "FontForge"
FAMILY_NAME "Crimson Pro"
WEIGHT_NAME "Book"
SLANT "R"
SETWIDTH_NAME "Normal"
ADD_STYLE_NAME ""
PIXEL_SIZE 30
POINT_SIZE 290
RESOLUTION_X 75
RESOLUTION_Y 75
SPACING "P"
AVERAGE_WIDTH 166
CHARSET_REGISTRY "ISO10646"
CHARSET_ENCODING "1"
FONTNAME_REGISTRY ""
CHARSET_COLLECTIONS "ISO10646-1"
FONT_NAME "CrimsonPro-Regular"
FACE_NAME "Crimson Pro Regular"
COPYRIGHT "Copyright 2018 The Crimson Pro Project Authors (https://github.com/Fonthausen/CrimsonPro)"
FONT_VERSION "1.003"
FONT_ASCENT 24
FONT_DESCENT 6
UNDERLINE_POSITION -4
UNDERLINE_THICKNESS 2
CAP_HEIGHT 16
RAW_ASCENT 799
RAW_DESCENT 200
RELATIVE_WEIGHT 40
RELATIVE_SETWIDTH 50
SUPERSCRIPT_X 0
SUPERSCRIPT_Y 10
SUPERSCRIPT_SIZE 17
SUBSCRIPT_X 0
SUBSCRIPT_Y 2
SUBSCRIPT_SIZE 17
FIGURE_WIDTH -1
AVG_UPPERCASE_WIDTH 173
ENDPROPERTIES
CHARS 28
STARTCHAR exclam
ENCODING 33
SWIDTH 259 0
DWIDTH 8 0
BBX 4 20 2 0
BITMAP
60
E0
E0
60
60
60
60
60
60
60
60
60
60
60
40
00
00
E0
F0
E0
ENDCHAR
STARTCHAR period
ENCODING 46
SWIDTH 228 0
DWIDTH 7 0
BBX 3 3 2 0
BITMAP
E0
E0
E0
ENDCHAR
STARTCHAR A
ENCODING 65
SWIDTH 568 0
DWIDTH 17 0
BBX 17 18 0 0
BITMAP
004000
01C000
01C000
01C000
03E000
02E000
067000
067000
043000
0C3800
083800
1FFC00
1FFC00
100C00
300E00
300E00
600700
F81F80
ENDCHAR
STARTCHAR B
ENCODING 66
SWIDTH 546 0
DWIDTH 16 0
BBX 14 17 1 0
BITMAP
FFE0
3870
3838
3838
3838
3838
3830
3FE0
3FF0
3838
381C
381C
381C
381C
3818
3870
FFC0
ENDCHAR
STARTCHAR C
ENCODING 67
SWIDTH 589 0
DWIDTH 18 0
BBX 15 17 2 0
BITMAP
0FFC
1C0C
380C
7004
E004
E000
E000
E000
E000
E000
E000
E000
F006
7006
380C
1E1C
07F8
ENDCHAR
STARTCHAR D
ENCODING 68
SWIDTH 666 0
DWIDTH 20 0
BBX 17 17 1 0
BITMAP
FFF000
383C00
380E00
380700
380780
380380
380380
380380
380380
380380
380380
380380
380300
380700
380E00
3FF800
FFE000
ENDCHAR
STARTCHAR E
ENCODING 69
SWIDTH 542 0
DWIDTH 16 0
BBX 14 17 1 0
BITMAP
FFF8
3818
3808
3808
3800
3820
3820
3FE0
3FE0
3820
3820
3800
3800
3804
380C
3FFC
FFF8
ENDCHAR
STARTCHAR F
ENCODING 70
SWIDTH 494 0
DWIDTH 15 0
BBX 13 17 1 0
BITMAP
FFF8
3818
3818
3808
3800
3820
3820
3860
3FE0
3820
3820
3800
3800
3800
3800
3800
7E00
ENDCHAR
STARTCHAR G
ENCODING 71
SWIDTH 632 0
DWIDTH 19 0
BBX 17 17 1 0
BITMAP
07FE00
0E0600
1C0600
380200
700000
700000
700000
700000
F00000
701F80
700700
700700
780700
380700
1C0700
0F0F00
03FC00
ENDCHAR
STARTCHAR H
ENCODING 72
SWIDTH 656 0
DWIDTH 20 0
BBX 17 17 1 0
BITMAP
FE1F80
380700
380600
380600
380600
380600
380600
3FFE00
3FFE00
380600
380600
380600
380600
380600
380600
380700
FE1F80
ENDCHAR
STARTCHAR I
ENCODING 73
SWIDTH 302 0
DWIDTH 9 0
BBX 7 17 1 0
BITMAP
FE
38
38
38
38
38
38
38
38
38
38
38
38
38
38
38
FE
ENDCHAR
STARTCHAR J
ENCODING 74
SWIDTH 302 0
DWIDTH 9 0
BBX 10 23 -2 -6
BITMAP
1FC0
0700
0700
0700
0700
0700
0700
0700
0700
0700
0700
0700
0700
0700
0700
0700
0700
0700
0700
0600
C600
EC00
7800
ENDCHAR
STARTCHAR K
ENCODING 75
SWIDTH 574 0
DWIDTH 17 0
BBX 16 17 1 0
BITMAP
FE3F
380C
3818
3830
3860
38C0
3980
3B00
3F80
3BC0
39C0
38E0
3870
3838
381C
381E
FE3F
ENDCHAR
STARTCHAR L
ENCODING 76
SWIDTH 499 0
DWIDTH 15 0
BBX 14 17 1 0
BITMAP
FE00
3800
3800
3800
3800
3800
3800
3800
3800
3800
3800
3800
3808
380C
3818
3FF8
FFF8
ENDCHAR
STARTCHAR M
ENCODING 77
SWIDTH 830 0
DWIDTH 25 0
BBX 23 17 1 0
BITMAP
7C007C
3C0070
3E00F0
3600B0
3701B0
3701B0
338330
338330
31C230
31C638
30C438
30EC38
30EC38
307838
307838
30303A
FC30FC
ENDCHAR
STARTCHAR N
ENCODING 78
SWIDTH 658 0
DWIDTH 20 0
BBX 17 17 1 0
BITMAP
F80F80
3C0300
3E0300
3E0200
370200
378200
33C200
31C200
30E200
30F200
307A00
303A00
301E00
301E00
300E00
300600
FC0200
ENDCHAR
STARTCHAR O
ENCODING 79
SWIDTH 669 0
DWIDTH 20 0
BBX 18 17 1 0
BITMAP
07F800
0E1E00
180F00
380700
700380
700380
7003C0
7001C0
F001C0
7001C0
700180
700380
780380
380700
1C0600
0F1C00
07F800
ENDCHAR
STARTCHAR P
ENCODING 80
SWIDTH 501 0
DWIDTH 15 0
BBX 13 17 1 0
BITMAP
FFC0
38F0
3870
3838
3838
3838
3838
3870
38E0
3FC0
3800
3800
3800
3800
3800
3800
FE00
ENDCHAR
STARTCHAR Q
ENCODING 81
SWIDTH 669 0
DWIDTH 20 0
BBX 20 21 1 -4
BITMAP
07F800
0E1E00
180F00
380700
700380
700380
7003C0
7001C0
F001C0
7001C0
700180
700380
780380
380700
1C0600
0F1C00
07F800
007800
003E00
000FF0
0003E0
ENDCHAR
STARTCHAR R
ENCODING 82
SWIDTH 553 0
DWIDTH 17 0
BBX 16 17 1 0
BITMAP
FFC0
38F0
3870
3838
3830
3830
3870
38E0
3F80
3980
39C0
38E0
38E0
3870
3838
383C
FE0F
ENDCHAR
STARTCHAR S
ENCODING 83
SWIDTH 467 0
DWIDTH 14 0
BBX 11 17 2 0
BITMAP
3FC0
60C0
C0C0
C040
C000
E000
F000
7C00
3F00
0FC0
03C0
00E0
80E0
80E0
C0C0
E1C0
FF00
ENDCHAR
STARTCHAR T
ENCODING 84
SWIDTH 543 0
DWIDTH 16 0
BBX 16 17 0 0
BITMAP
7FFE
6186
6183
4183
C182
0180
0180
0180
0180
0180
0180
0180
0180
0180
0180
01C0
0FF0
ENDCHAR
STARTCHAR U
ENCODING 85
SWIDTH 648 0
DWIDTH 19 0
BBX 17 17 1 0
BITMAP
FE1F80
380600
380600
380600
380600
380200
380200
380200
380200
380200
380200
380600
380600
1C0600
1C0C00
0FFC00
07F000
ENDCHAR
STARTCHAR V
ENCODING 86
SWIDTH 571 0
DWIDTH 17 0
BBX 17 17 0 0
BITMAP
FC0F80
380300
380600
380600
1C0C00
1C0C00
0E0C00
0E1800
0E1800
071000
073000
032000
03E000
03E000
01C000
01C000
008000
ENDCHAR
STARTCHAR W
ENCODING 87
SWIDTH 918 0
DWIDTH 28 0
BBX 27 17 0 0
BITMAP
FC1F83E0
380E00C0
38070180
18070180
1C0F0180
1C0F8300
0E0B8300
0E198200
0E19C600
0731C600
0730E400
0320EC00
03E06800
03E07800
01C07800
01C03000
00803000
ENDCHAR
STARTCHAR X
ENCODING 88
SWIDTH 568 0
DWIDTH 17 0
BBX 17 17 0 0
BITMAP
7E3F00
380C00
1C0C00
0E1800
0F3000
076000
03C000
01C000
01C000
03E000
027000
067800
0C3800
181C00
180E00
300F00
FC3F80
ENDCHAR
STARTCHAR Y
ENCODING 89
SWIDTH 528 0
DWIDTH 16 0
BBX 16 17 0 0
BITMAP
FC3F
380C
380C
1C18
1C10
0E30
0760
0740
03C0
0180
0180
0180
0180
0180
0180
0BC0
07E0
ENDCHAR
STARTCHAR Z
ENCODING 90
SWIDTH 520 0
DWIDTH 16 0
BBX 14 17 1 0
BITMAP
FFF8
C038
C070
C060
00E0
01C0
01C0
0380
0700
0700
0E00
0E00
1C04
380C
380C
7FF8
7FF8
ENDCHAR
ENDFONT
