STARTFONT 2.1
FONT -FontForge-Crimson Pro-Book-R-Normal--96-920-75-75-P-436-ISO10646-1
SIZE 92 75 75
FONTBOUNDINGBOX 75 67 0 -2
COMMENT "Generated by fontforge, http://fontforge.sourceforge.net"
COMMENT "Copyright 2018 The Crimson Pro Project Authors (https://github.com/Fonthausen/CrimsonPro)"
STARTPROPERTIES 37
FOUNDRY "FontForge"
FAMILY_NAME "Crimson Pro"
WEIGHT_NAME "Book"
SLANT "R"
SETWIDTH_NAME "Normal"
ADD_STYLE_NAME ""
PIXEL_SIZE 96
POINT_SIZE 920
RESOLUTION_X 75
RESOLUTION_Y 75
SPACING "P"
AVERAGE_WIDTH 436
CHARSET_REGISTRY "ISO10646"
CHARSET_ENCODING "1"
FONTNAME_REGISTRY ""
CHARSET_COLLECTIONS "ISO10646-1"
FONT_NAME "CrimsonPro-Regular"
FACE_NAME "Crimson Pro Regular"
COPYRIGHT "Copyright 2018 The Crimson Pro Project Authors (https://github.com/Fonthausen/CrimsonPro)"
FONT_VERSION "1.003"
FONT_ASCENT 77
FONT_DESCENT 19
UNDERLINE_POSITION -12
UNDERLINE_THICKNESS 5
RAW_ASCENT 799
RAW_DESCENT 200
NORM_SPACE 18
RELATIVE_WEIGHT 40
RELATIVE_SETWIDTH 50
SUPERSCRIPT_X 0
SUPERSCRIPT_Y 33
SUPERSCRIPT_SIZE 57
SUBSCRIPT_X 0
SUBSCRIPT_Y 7
SUBSCRIPT_SIZE 57
AVG_LOWERCASE_WIDTH 460
AVG_UPPERCASE_WIDTH 800
ENDPROPERTIES
CHARS 15
STARTCHAR space
ENCODING 32
SWIDTH 187 0
DWIDTH 18 0
BBX 1 1 0 0
BITMAP
00
ENDCHAR
STARTCHAR quotesingle
ENCODING 39
SWIDTH 228 0
DWIDTH 22 0
BBX 10 25 6 40
BITMAP
3F00
7F80
FFC0
FFC0
FFC0
FFC0
FFC0
FFC0
FFC0
FFC0
FFC0
FFC0
FFC0
7F80
7F80
7F80
7F80
3F00
3F00
3F00
3F00
1E00
1E00
1E00
1E00
ENDCHAR
STARTCHAR period
ENCODING 46
SWIDTH 228 0
DWIDTH 22 0
BBX 12 12 5 -1
BITMAP
0400
3F80
7FE0
7FE0
FFF0
FFF0
FFF0
FFF0
FFE0
7FE0
3FC0
0F00
ENDCHAR
STARTCHAR zero
ENCODING 48
SWIDTH 565 0
DWIDTH 54 0
BBX 44 57 5 -1
BITMAP
00001FE00000
0001FFFC0000
0007FFFF0000
000FFFFFC000
003FFFFFE000
007FC03FF000
00FF000FF800
01FE0007FC00
03FC0003FE00
03F80003FE00
07F80001FF00
0FF00000FF80
0FF00000FF80
1FE000007FC0
1FE000007FC0
3FE000007FC0
3FC000003FE0
3FC000003FE0
7FC000003FE0
7FC000003FE0
7FC000001FF0
7F8000001FF0
7F8000001FF0
FF8000001FF0
FF8000001FF0
FF8000001FF0
FF8000001FF0
FF8000001FF0
FF8000001FF0
FF8000001FF0
FF8000001FF0
FF8000001FF0
FF8000001FF0
FFC000001FF0
FFC000001FF0
7FC000001FF0
7FC000001FE0
7FC000001FE0
7FE000001FE0
3FE000003FE0
3FE000003FC0
3FE000003FC0
1FF000003F80
1FF000007F80
1FF800007F00
0FF80000FF00
07FC0000FE00
07FE0001FE00
03FE0003FC00
01FF0003F800
00FFC00FF000
007FF01FE000
003FFFFFC000
001FFFFF8000
0007FFFE0000
0001FFF80000
00001FC00000
ENDCHAR
STARTCHAR one
ENCODING 49
SWIDTH 332 0
DWIDTH 32 0
BBX 25 56 4 0
BITMAP
00008000
00078000
001F8000
007F8000
03FF8000
0FFF8000
3FFF8000
FFFF8000
FFFF8000
FF7F8000
707F8000
007F8000
007F8000
007F8000
007F8000
007F8000
007F8000
007F8000
007F8000
007F8000
007F8000
007F8000
007F8000
007F8000
007F8000
007F8000
007F8000
007F8000
007F8000
007F8000
007F8000
007F8000
007F8000
007F8000
007F8000
007F8000
007F8000
007F8000
007F8000
007F8000
007F8000
007F8000
007F8000
007F8000
007F8000
007F8000
007F8000
007F8000
007F8000
007F8000
007F8000
01FFE000
7FFFFF80
7FFFFF80
7FFFFF00
7FFFFF00
ENDCHAR
STARTCHAR two
ENCODING 50
SWIDTH 476 0
DWIDTH 46 0
BBX 39 56 3 0
BITMAP
0007F80000
003FFF8000
00FFFFE000
03FFFFF000
07FFFFF800
0FFFFFFC00
1FFFFFFE00
3FC01FFF00
3F0007FF00
7C0003FF80
F80001FF80
F00000FFC0
E00000FFC0
6000007FC0
0000007FC0
0000007FC0
0000007FC0
0000003FC0
0000003FC0
0000003FC0
0000007FC0
0000007F80
0000007F80
0000007F80
0000007F80
000000FF00
000000FF00
000000FE00
000001FE00
000001FC00
000003F800
000007F800
000007F000
00000FE000
00001FC000
00001FC000
00003F8000
00007F0000
0000FE0000
0001FC0000
0003F80000
0007F0001E
000FE0001E
000FC0003E
001F00003E
007E00003E
00FC00007E
01F800007C
03E00000FC
07FFFFFFFC
0FFFFFFFFC
1FFFFFFFFC
3FFFFFFFFC
7FFFFFFFFC
3FFFFFFFF8
3FFFFFFFF8
ENDCHAR
STARTCHAR three
ENCODING 51
SWIDTH 474 0
DWIDTH 46 0
BBX 35 57 5 -1
BITMAP
0007F80000
003FFF0000
01FFFFC000
03FFFFE000
07FFFFF800
1FFFFFF800
1FFFFFFC00
3F801FFE00
7E0007FE00
780003FE00
F00003FE00
200001FF00
000001FF00
000001FF00
000001FE00
000001FE00
000001FE00
000001FC00
000001FC00
000003F800
000003F000
000007F000
00000FC000
00003F8000
0000FE0000
0007FC0000
007FFF8000
003FFFF000
003FFFFC00
003FFFFE00
00000FFF00
000003FF80
000000FFC0
0000007FC0
0000007FC0
0000003FE0
0000003FE0
0000001FE0
0000001FE0
0000001FE0
0000001FE0
0000001FE0
0000001FE0
0000001FE0
0000001FC0
0000003FC0
1C00003F80
7F00007F80
7F8000FF00
FFC001FE00
FFF003FC00
7FF80FF800
7FFCFFF000
3FFFFFC000
1FFFFF8000
07FFFC0000
007FC00000
ENDCHAR
STARTCHAR four
ENCODING 52
SWIDTH 510 0
DWIDTH 49 0
BBX 41 55 4 0
BITMAP
0000000F0000
0000001F0000
0000003F0000
0000003F0000
0000007F0000
000000FF0000
000001FF0000
000001FF0000
000003FF0000
000007FF0000
00000FFF0000
00001F7F0000
00001F7F0000
00003E7F0000
00007C7F0000
0000F87F0000
0001F87F0000
0001F07F0000
0003E07F0000
0007C07F0000
000FC07F0000
001F807F0000
001F007F0000
003E007F0000
007E007F0000
00FC007F0000
00F8007F0000
01F0007F0000
03F0007F0000
07E0007F0000
0FC0007F0000
0F80007F0000
1F80007F0000
3F00007F0000
7FFFFFFFFF80
FFFFFFFFFF80
FFFFFFFFFF80
FFFFFFFFFF80
FFFFFFFFFF80
FFFFFFFFFF80
0000007F0000
0000007F0000
0000007F0000
0000007F0000
0000007F0000
0000007F0000
0000007F0000
0000007F0000
0000007F0000
0000007F0000
000001FFC000
00007FFFFC00
00007FFFFC00
00007FFFFC00
00007FFFFC00
ENDCHAR
STARTCHAR five
ENCODING 53
SWIDTH 471 0
DWIDTH 45 0
BBX 35 56 4 -1
BITMAP
00FFFFFF80
00FFFFFF80
00FFFFFF80
00FFFFFF80
00FFFFFF00
00FFFFFF00
00FFFFFF00
00F8000000
00F0000000
01F0000000
01F0000000
01F0000000
01F0000000
01F0000000
01F0000000
01F0000000
01F0000000
03F0000000
03E0000000
03E0000000
03E0000000
03FC000000
03FFE00000
03FFFC0000
03FFFF8000
07FFFFE000
07FFFFF800
03FFFFFC00
000FFFFE00
0000FFFF00
00000FFF80
000003FFC0
000001FFC0
0000007FE0
0000003FE0
0000003FE0
0000001FE0
0000001FE0
0000001FE0
0000001FE0
0000001FE0
0000001FE0
0000001FE0
0000001FE0
0000001FC0
1C00003FC0
7F00003F80
7F80007F00
FFC000FE00
7FF003FC00
7FF80FF800
7FFC7FF000
3FFFFFC000
1FFFFF8000
07FFFC0000
007FC00000
ENDCHAR
STARTCHAR six
ENCODING 54
SWIDTH 507 0
DWIDTH 49 0
BBX 38 58 6 -1
BITMAP
0000000080
0000001F80
000000FFC0
000003FFC0
00000FFFC0
00003FFE00
0000FFF000
0001FFC000
0003FF0000
000FFC0000
001FF80000
003FE00000
007FC00000
00FF800000
00FF000000
01FE000000
03FE000000
03FC000000
07F8000000
0FF8000000
0FF0000000
1FF0000000
1FE0000000
1FE0000000
3FC0000000
3FC07FE000
3FC1FFFC00
7FC7FFFE00
7F8FFFFF80
7F9FFFFFC0
7FBFFFFFC0
FFFE01FFE0
FFF0007FF0
FFE0003FF0
FFC0001FF8
FF80001FF8
FF80000FF8
FF80000FF8
FF800007FC
FF800007FC
FF800007FC
FF800007FC
7F800007F8
7F800007F8
7FC00007F8
7FC00007F8
3FC00007F0
3FE0000FF0
1FE0000FE0
1FF0001FE0
0FF8003FC0
07FC007F80
03FF00FF00
01FFFFFE00
00FFFFFC00
003FFFF000
000FFFC000
0001FE0000
ENDCHAR
STARTCHAR seven
ENCODING 55
SWIDTH 460 0
DWIDTH 44 0
BBX 39 55 3 0
BITMAP
3FFFFFFFFE
3FFFFFFFFE
3FFFFFFFFE
3FFFFFFFFE
3FFFFFFFFE
7FFFFFFFFC
7FFFFFFFFC
7FFFFFFFF8
7C000000F8
7C000001F8
7C000001F0
F8000003F0
F8000003E0
F0000007E0
F0000007E0
0000000FC0
0000000FC0
0000000F80
0000001F80
0000001F80
0000003F00
0000003F00
0000007E00
0000007E00
000000FC00
000000FC00
000001FC00
000001F800
000003F800
000003F000
000007F000
000007F000
00000FE000
00000FE000
00001FC000
00001FC000
00003FC000
00003F8000
00007F8000
00007F0000
0000FF0000
0000FF0000
0001FE0000
0001FE0000
0003FC0000
0003FC0000
0007F80000
0007F80000
000FF80000
000FF00000
001FF00000
001FE00000
001FE00000
001FE00000
001FC00000
ENDCHAR
STARTCHAR eight
ENCODING 56
SWIDTH 538 0
DWIDTH 52 0
BBX 39 57 6 -1
BITMAP
0000FF8000
0007FFF000
003FFFFC00
007FFFFF00
01FFC3FF80
03FE007FC0
07F8003FE0
07F0001FF0
0FE0000FF0
0FE0000FF0
1FE00007F8
1FE00007F8
1FC00007F8
1FC00003F8
1FE00003F8
1FE00003F8
1FE00003F8
1FF00007F8
1FF00007F0
1FF80007F0
0FFC0007F0
0FFF000FE0
07FF800FC0
07FFE01F80
03FFF83F00
01FFFF3E00
007FFFFC00
003FFFF000
000FFFFC00
003FFFFF00
00FFFFFF80
03FC3FFFE0
07F807FFF0
0FF001FFF8
1FE0007FF8
3FC0003FFC
3FC0000FFC
7F800007FE
7F800003FE
7F800003FE
FF000001FE
FF000001FE
FF000001FE
FF800001FE
7F800001FE
7F800001FC
7FC00001FC
7FC00003FC
3FE00003F8
3FF00007F0
1FF8001FF0
0FFF007FE0
07FFFFFFC0
01FFFFFF00
00FFFFFC00
001FFFF000
0001FF0000
ENDCHAR
STARTCHAR nine
ENCODING 57
SWIDTH 507 0
DWIDTH 49 0
BBX 38 58 5 -2
BITMAP
0001FE0000
001FFFC000
007FFFF000
00FFFFFC00
03FFFFFE00
07FC03FF00
0FF000FF80
0FE0007FC0
1FE0003FE0
3FC0003FE0
3F80001FF0
7F80001FF0
7F80000FF0
7F80000FF8
FF80000FF8
FF80000FF8
FF800007F8
FF800007FC
FF800007FC
FF800007FC
FF800007FC
FFC00007FC
7FC00007FC
7FE0000FFC
3FF0001FFC
3FF8007FF8
1FFE01FFF8
1FFFFFF7F8
0FFFFFEFF8
07FFFFCFF8
01FFFF8FF8
00FFFE0FF0
003FF81FF0
0000001FF0
0000001FE0
0000003FE0
0000003FC0
0000007FC0
0000007F80
000000FF80
000000FF00
000001FE00
000003FE00
000007FC00
00000FF800
00001FF000
00003FE000
00007FC000
0001FF8000
0007FF0000
001FFC0000
007FF80000
03FFE00000
0FFF800000
0FFE000000
0FF8000000
07C0000000
0400000000
ENDCHAR
STARTCHAR M
ENCODING 77
SWIDTH 830 0
DWIDTH 80 0
BBX 71 55 4 0
BITMAP
7FFFC000000001FFFC
7FFFC000000003FFFC
7FFFE000000003FFFC
7FFFE000000007FFFC
07FFE000000007FFC0
01FFF00000000FFF00
01FFF00000000FFF00
01FFF80000000FFF00
01FFF80000001FFF00
01F7FC0000001FFF00
01F7FC0000003EFF00
01F3FE0000003EFF00
01F3FE0000007EFF00
01F3FE0000007CFF00
01F1FF0000007CFF00
01F1FF000000F8FF00
01F0FF800000F8FF80
01F0FF800001F0FF80
01F07FC00001F0FF80
01F07FC00003F0FF80
01F07FC00003E0FF80
01F03FE00003E0FF80
01F03FE00007C0FF80
01F01FF00007C0FF80
01F01FF0000F80FF80
01F00FF8000F807F80
01F00FF8001F807F80
01F007FC001F007F80
01F007FC003F007F80
01F007FC003E007F80
01F003FE003E007F80
01F003FE007C007F80
01F001FF007C007F80
01F001FF00FC007F80
01F000FF80F8007F80
03F000FF81F8007F80
03F0007F81F0007F80
03F0007FC1F0007F80
03F0007FC3E0007F80
03F0003FE3E0007F80
03F0003FE7E0007F80
03F0001FF7C0007F80
03F0001FFFC0007F80
03F0000FFF80007F80
03F0000FFF80007F80
03F00007FF00007F80
03F00007FF00007F80
03F00007FE00007F80
03F00003FE00007F80
03F00003FE00007F80
0FFC0001FC0001FFE0
FFFFE001FC001FFFFE
FFFFE000F8001FFFFE
FFFFE000F8001FFFFE
FFFFC000F0001FFFFE
ENDCHAR
STARTCHAR k
ENCODING 107
SWIDTH 477 0
DWIDTH 46 0
BBX 45 65 1 0
BITMAP
000E00000000
00FF00000000
07FF00000000
FFFF00000000
7FFE00000000
7FFE00000000
7FFE00000000
03FE00000000
00FE00000000
00FE00000000
00FE00000000
00FE00000000
00FE00000000
00FE00000000
00FE00000000
00FE00000000
00FE00000000
00FE00000000
00FE00000000
00FE00000000
00FE00000000
00FE00000000
00FE00000000
00FE00000000
00FE00000000
00FE00FFFFE0
00FE00FFFFE0
00FE00FFFFE0
00FE003FFF80
00FE0003F800
00FE0007F000
00FE000FE000
00FE001FC000
00FE003F0000
00FE007E0000
00FE00FC0000
00FE01F80000
00FE03F00000
00FE07E00000
00FE0FC00000
00FE1F800000
00FE3F000000
00FEFE000000
00FFFF000000
00FFFF800000
00FFFFC00000
00FE7FE00000
00FE3FF00000
00FE1FF80000
00FE0FFC0000
00FE07FE0000
00FE03FF0000
00FE01FF0000
00FE00FF8000
00FE007FC000
00FE007FE000
00FE003FF000
00FE001FF800
00FE000FFC00
00FE0007FE00
03FF8003FF00
1FFFF801FFF8
3FFFF800FFF8
3FFFF8007FF8
3FFFF8007FF0
ENDCHAR
ENDFONT
